<mxfile host="app.diagrams.net" agent="Mozilla/5.0 (Windows NT 10.0; Win64; x64) AppleWebKit/537.36 (KHTML, like Gecko) Chrome/131.0.0.0 Safari/537.36" version="24.8.6">
  <diagram name="PÃ¡gina-1" id="GUrDuutOqLoMvuZwz9a1">
    <mxGraphModel dx="1195" dy="622" grid="1" gridSize="10" guides="1" tooltips="1" connect="1" arrows="1" fold="1" page="1" pageScale="1" pageWidth="827" pageHeight="1169" math="0" shadow="0">
      <root>
        <mxCell id="0" />
        <mxCell id="1" parent="0" />
        <mxCell id="ai9MgEBuzhq0wdES0TkW-4" value="" style="line;strokeWidth=2;direction=south;html=1;" vertex="1" parent="1">
          <mxGeometry x="40" y="320" width="10" height="40" as="geometry" />
        </mxCell>
        <mxCell id="ai9MgEBuzhq0wdES0TkW-13" value="" style="line;strokeWidth=2;html=1;" vertex="1" parent="1">
          <mxGeometry x="45" y="335" width="185" height="10" as="geometry" />
        </mxCell>
        <mxCell id="ai9MgEBuzhq0wdES0TkW-25" value="" style="endArrow=oval;html=1;rounded=0;endFill=0;" edge="1" parent="1">
          <mxGeometry width="50" height="50" relative="1" as="geometry">
            <mxPoint x="50" y="340" as="sourcePoint" />
            <mxPoint x="50" y="305" as="targetPoint" />
          </mxGeometry>
        </mxCell>
        <mxCell id="ai9MgEBuzhq0wdES0TkW-26" value="" style="endArrow=oval;html=1;rounded=0;endFill=0;" edge="1" parent="1">
          <mxGeometry width="50" height="50" relative="1" as="geometry">
            <mxPoint x="60" y="340" as="sourcePoint" />
            <mxPoint x="60" y="305" as="targetPoint" />
          </mxGeometry>
        </mxCell>
        <mxCell id="ai9MgEBuzhq0wdES0TkW-27" value="" style="endArrow=oval;html=1;rounded=0;endFill=0;" edge="1" parent="1">
          <mxGeometry width="50" height="50" relative="1" as="geometry">
            <mxPoint x="70" y="340" as="sourcePoint" />
            <mxPoint x="70" y="305" as="targetPoint" />
          </mxGeometry>
        </mxCell>
        <mxCell id="ai9MgEBuzhq0wdES0TkW-28" value="" style="endArrow=oval;html=1;rounded=0;endFill=0;" edge="1" parent="1">
          <mxGeometry width="50" height="50" relative="1" as="geometry">
            <mxPoint x="80" y="340" as="sourcePoint" />
            <mxPoint x="80" y="305" as="targetPoint" />
          </mxGeometry>
        </mxCell>
        <mxCell id="ai9MgEBuzhq0wdES0TkW-29" value="" style="endArrow=oval;html=1;rounded=0;endFill=0;" edge="1" parent="1">
          <mxGeometry width="50" height="50" relative="1" as="geometry">
            <mxPoint x="90" y="340" as="sourcePoint" />
            <mxPoint x="90" y="305" as="targetPoint" />
          </mxGeometry>
        </mxCell>
        <mxCell id="ai9MgEBuzhq0wdES0TkW-30" value="" style="endArrow=oval;html=1;rounded=0;endFill=0;" edge="1" parent="1">
          <mxGeometry width="50" height="50" relative="1" as="geometry">
            <mxPoint x="100" y="340" as="sourcePoint" />
            <mxPoint x="100" y="305" as="targetPoint" />
          </mxGeometry>
        </mxCell>
        <mxCell id="ai9MgEBuzhq0wdES0TkW-34" value="" style="endArrow=oval;html=1;rounded=0;endFill=0;" edge="1" parent="1">
          <mxGeometry width="50" height="50" relative="1" as="geometry">
            <mxPoint x="110" y="340" as="sourcePoint" />
            <mxPoint x="110" y="305" as="targetPoint" />
          </mxGeometry>
        </mxCell>
        <mxCell id="ai9MgEBuzhq0wdES0TkW-35" value="" style="endArrow=oval;html=1;rounded=0;endFill=0;" edge="1" parent="1">
          <mxGeometry width="50" height="50" relative="1" as="geometry">
            <mxPoint x="120" y="340" as="sourcePoint" />
            <mxPoint x="120" y="305" as="targetPoint" />
          </mxGeometry>
        </mxCell>
        <mxCell id="ai9MgEBuzhq0wdES0TkW-36" value="" style="endArrow=oval;html=1;rounded=0;endFill=0;" edge="1" parent="1">
          <mxGeometry width="50" height="50" relative="1" as="geometry">
            <mxPoint x="130" y="340" as="sourcePoint" />
            <mxPoint x="130" y="305" as="targetPoint" />
          </mxGeometry>
        </mxCell>
        <mxCell id="ai9MgEBuzhq0wdES0TkW-38" value="" style="endArrow=oval;html=1;rounded=0;endFill=0;" edge="1" parent="1">
          <mxGeometry width="50" height="50" relative="1" as="geometry">
            <mxPoint x="140" y="340" as="sourcePoint" />
            <mxPoint x="140" y="305" as="targetPoint" />
          </mxGeometry>
        </mxCell>
        <mxCell id="ai9MgEBuzhq0wdES0TkW-42" value="" style="shape=waypoint;sketch=0;fillStyle=solid;size=6;pointerEvents=1;points=[];fillColor=none;resizable=0;rotatable=0;perimeter=centerPerimeter;snapToPoint=1;strokeWidth=0;" vertex="1" parent="1">
          <mxGeometry x="230" y="330" width="20" height="20" as="geometry" />
        </mxCell>
        <mxCell id="ai9MgEBuzhq0wdES0TkW-43" value="" style="shape=waypoint;sketch=0;fillStyle=solid;size=6;pointerEvents=1;points=[];fillColor=none;resizable=0;rotatable=0;perimeter=centerPerimeter;snapToPoint=1;strokeWidth=0;" vertex="1" parent="1">
          <mxGeometry x="240" y="330" width="20" height="20" as="geometry" />
        </mxCell>
        <mxCell id="ai9MgEBuzhq0wdES0TkW-44" value="" style="shape=waypoint;sketch=0;fillStyle=solid;size=6;pointerEvents=1;points=[];fillColor=none;resizable=0;rotatable=0;perimeter=centerPerimeter;snapToPoint=1;strokeWidth=0;" vertex="1" parent="1">
          <mxGeometry x="250" y="330" width="20" height="20" as="geometry" />
        </mxCell>
        <mxCell id="ai9MgEBuzhq0wdES0TkW-63" value="" style="line;strokeWidth=2;html=1;" vertex="1" parent="1">
          <mxGeometry x="270" y="335" width="193" height="10" as="geometry" />
        </mxCell>
        <mxCell id="ai9MgEBuzhq0wdES0TkW-64" value="" style="endArrow=oval;html=1;rounded=0;endFill=0;" edge="1" parent="1">
          <mxGeometry width="50" height="50" relative="1" as="geometry">
            <mxPoint x="300" y="340" as="sourcePoint" />
            <mxPoint x="300" y="305" as="targetPoint" />
          </mxGeometry>
        </mxCell>
        <mxCell id="ai9MgEBuzhq0wdES0TkW-65" value="" style="endArrow=oval;html=1;rounded=0;endFill=0;" edge="1" parent="1">
          <mxGeometry width="50" height="50" relative="1" as="geometry">
            <mxPoint x="310" y="340" as="sourcePoint" />
            <mxPoint x="310" y="305" as="targetPoint" />
          </mxGeometry>
        </mxCell>
        <mxCell id="ai9MgEBuzhq0wdES0TkW-66" value="" style="endArrow=oval;html=1;rounded=0;endFill=0;" edge="1" parent="1">
          <mxGeometry width="50" height="50" relative="1" as="geometry">
            <mxPoint x="320" y="340" as="sourcePoint" />
            <mxPoint x="320" y="305" as="targetPoint" />
          </mxGeometry>
        </mxCell>
        <mxCell id="ai9MgEBuzhq0wdES0TkW-67" value="" style="endArrow=oval;html=1;rounded=0;endFill=0;" edge="1" parent="1">
          <mxGeometry width="50" height="50" relative="1" as="geometry">
            <mxPoint x="330" y="340" as="sourcePoint" />
            <mxPoint x="330" y="305" as="targetPoint" />
          </mxGeometry>
        </mxCell>
        <mxCell id="ai9MgEBuzhq0wdES0TkW-68" value="" style="endArrow=oval;html=1;rounded=0;endFill=0;" edge="1" parent="1">
          <mxGeometry width="50" height="50" relative="1" as="geometry">
            <mxPoint x="340" y="340" as="sourcePoint" />
            <mxPoint x="340" y="305" as="targetPoint" />
          </mxGeometry>
        </mxCell>
        <mxCell id="ai9MgEBuzhq0wdES0TkW-69" value="" style="endArrow=oval;html=1;rounded=0;endFill=0;" edge="1" parent="1">
          <mxGeometry width="50" height="50" relative="1" as="geometry">
            <mxPoint x="350" y="340" as="sourcePoint" />
            <mxPoint x="350" y="305" as="targetPoint" />
          </mxGeometry>
        </mxCell>
        <mxCell id="ai9MgEBuzhq0wdES0TkW-70" value="" style="endArrow=oval;html=1;rounded=0;endFill=0;" edge="1" parent="1">
          <mxGeometry width="50" height="50" relative="1" as="geometry">
            <mxPoint x="360" y="340" as="sourcePoint" />
            <mxPoint x="360" y="305" as="targetPoint" />
          </mxGeometry>
        </mxCell>
        <mxCell id="ai9MgEBuzhq0wdES0TkW-71" value="" style="endArrow=oval;html=1;rounded=0;endFill=0;" edge="1" parent="1">
          <mxGeometry width="50" height="50" relative="1" as="geometry">
            <mxPoint x="370" y="340" as="sourcePoint" />
            <mxPoint x="370" y="305" as="targetPoint" />
          </mxGeometry>
        </mxCell>
        <mxCell id="ai9MgEBuzhq0wdES0TkW-72" value="" style="endArrow=oval;html=1;rounded=0;endFill=0;" edge="1" parent="1">
          <mxGeometry width="50" height="50" relative="1" as="geometry">
            <mxPoint x="380" y="340" as="sourcePoint" />
            <mxPoint x="380" y="305" as="targetPoint" />
          </mxGeometry>
        </mxCell>
        <mxCell id="ai9MgEBuzhq0wdES0TkW-73" value="" style="endArrow=oval;html=1;rounded=0;endFill=0;" edge="1" parent="1">
          <mxGeometry width="50" height="50" relative="1" as="geometry">
            <mxPoint x="390" y="340" as="sourcePoint" />
            <mxPoint x="390" y="305" as="targetPoint" />
          </mxGeometry>
        </mxCell>
        <mxCell id="ai9MgEBuzhq0wdES0TkW-74" value="" style="shape=waypoint;sketch=0;fillStyle=solid;size=6;pointerEvents=1;points=[];fillColor=none;resizable=0;rotatable=0;perimeter=centerPerimeter;snapToPoint=1;strokeWidth=0;" vertex="1" parent="1">
          <mxGeometry x="460" y="330" width="20" height="20" as="geometry" />
        </mxCell>
        <mxCell id="ai9MgEBuzhq0wdES0TkW-75" value="" style="shape=waypoint;sketch=0;fillStyle=solid;size=6;pointerEvents=1;points=[];fillColor=none;resizable=0;rotatable=0;perimeter=centerPerimeter;snapToPoint=1;strokeWidth=0;" vertex="1" parent="1">
          <mxGeometry x="470" y="330" width="20" height="20" as="geometry" />
        </mxCell>
        <mxCell id="ai9MgEBuzhq0wdES0TkW-76" value="" style="shape=waypoint;sketch=0;fillStyle=solid;size=6;pointerEvents=1;points=[];fillColor=none;resizable=0;rotatable=0;perimeter=centerPerimeter;snapToPoint=1;strokeWidth=0;" vertex="1" parent="1">
          <mxGeometry x="480" y="330" width="20" height="20" as="geometry" />
        </mxCell>
        <mxCell id="ai9MgEBuzhq0wdES0TkW-77" value="" style="line;strokeWidth=2;direction=south;html=1;" vertex="1" parent="1">
          <mxGeometry x="500" y="320" width="10" height="40" as="geometry" />
        </mxCell>
        <mxCell id="ai9MgEBuzhq0wdES0TkW-78" value="Time of Sampling" style="text;html=1;align=center;verticalAlign=middle;whiteSpace=wrap;rounded=1;fontStyle=1;fillColor=none;gradientColor=none;strokeColor=default;dashed=1;dashPattern=1 1;perimeterSpacing=0;glass=0;shadow=0;" vertex="1" parent="1">
          <mxGeometry x="24.5" y="370" width="60" height="40" as="geometry" />
        </mxCell>
        <mxCell id="ai9MgEBuzhq0wdES0TkW-79" value="" style="shape=curlyBracket;whiteSpace=wrap;html=1;rounded=1;flipH=1;labelPosition=right;verticalLabelPosition=middle;align=left;verticalAlign=middle;rotation=90;" vertex="1" parent="1">
          <mxGeometry x="52" y="340" width="5" height="10" as="geometry" />
        </mxCell>
        <mxCell id="ai9MgEBuzhq0wdES0TkW-80" value="" style="line;strokeWidth=1;direction=south;html=1;" vertex="1" parent="1">
          <mxGeometry x="49.5" y="345" width="10" height="25" as="geometry" />
        </mxCell>
        <mxCell id="ai9MgEBuzhq0wdES0TkW-81" value="" style="edgeStyle=segmentEdgeStyle;endArrow=classic;html=1;curved=0;rounded=0;endSize=8;startSize=8;" edge="1" parent="1">
          <mxGeometry width="50" height="50" relative="1" as="geometry">
            <mxPoint x="50" y="300" as="sourcePoint" />
            <mxPoint x="50" y="270" as="targetPoint" />
            <Array as="points">
              <mxPoint x="50" y="270" />
              <mxPoint x="50" y="270" />
            </Array>
          </mxGeometry>
        </mxCell>
        <mxCell id="ai9MgEBuzhq0wdES0TkW-82" value="Voltage Read" style="text;strokeColor=none;fillColor=none;html=1;fontSize=12;fontStyle=1;verticalAlign=middle;align=center;whiteSpace=wrap;" vertex="1" parent="1">
          <mxGeometry x="12" y="230" width="75.5" height="40" as="geometry" />
        </mxCell>
        <mxCell id="ai9MgEBuzhq0wdES0TkW-83" value="" style="endArrow=oval;html=1;rounded=0;endFill=1;" edge="1" parent="1">
          <mxGeometry width="50" height="50" relative="1" as="geometry">
            <mxPoint x="160" y="340" as="sourcePoint" />
            <mxPoint x="160" y="305" as="targetPoint" />
          </mxGeometry>
        </mxCell>
        <mxCell id="ai9MgEBuzhq0wdES0TkW-84" value="" style="endArrow=oval;html=1;rounded=0;endFill=1;" edge="1" parent="1">
          <mxGeometry width="50" height="50" relative="1" as="geometry">
            <mxPoint x="170" y="340" as="sourcePoint" />
            <mxPoint x="170" y="305" as="targetPoint" />
          </mxGeometry>
        </mxCell>
        <mxCell id="ai9MgEBuzhq0wdES0TkW-85" value="" style="edgeStyle=segmentEdgeStyle;endArrow=classic;html=1;curved=0;rounded=0;endSize=8;startSize=8;" edge="1" parent="1">
          <mxGeometry width="50" height="50" relative="1" as="geometry">
            <mxPoint x="160" y="300" as="sourcePoint" />
            <mxPoint x="160" y="270" as="targetPoint" />
            <Array as="points">
              <mxPoint x="160" y="270" />
              <mxPoint x="160" y="270" />
            </Array>
          </mxGeometry>
        </mxCell>
        <mxCell id="ai9MgEBuzhq0wdES0TkW-86" value="Temperature Request" style="text;strokeColor=none;fillColor=none;html=1;fontSize=12;fontStyle=1;verticalAlign=middle;align=center;horizontal=1;whiteSpace=wrap;" vertex="1" parent="1">
          <mxGeometry x="122" y="230" width="75.5" height="40" as="geometry" />
        </mxCell>
        <mxCell id="ai9MgEBuzhq0wdES0TkW-89" value="Time of Read" style="text;html=1;align=center;verticalAlign=middle;whiteSpace=wrap;rounded=1;fontStyle=1;fillColor=none;gradientColor=none;strokeColor=default;dashed=1;dashPattern=1 1;perimeterSpacing=0;glass=0;shadow=0;" vertex="1" parent="1">
          <mxGeometry x="132.5" y="381" width="60" height="40" as="geometry" />
        </mxCell>
        <mxCell id="ai9MgEBuzhq0wdES0TkW-90" value="" style="shape=curlyBracket;whiteSpace=wrap;html=1;rounded=1;flipH=1;labelPosition=right;verticalLabelPosition=middle;align=left;verticalAlign=middle;rotation=90;" vertex="1" parent="1">
          <mxGeometry x="155.63" y="236" width="13.75" height="230" as="geometry" />
        </mxCell>
        <mxCell id="ai9MgEBuzhq0wdES0TkW-91" value="" style="line;strokeWidth=1;direction=south;html=1;" vertex="1" parent="1">
          <mxGeometry x="157.5" y="356" width="10" height="25" as="geometry" />
        </mxCell>
        <mxCell id="ai9MgEBuzhq0wdES0TkW-92" value="" style="endArrow=block;html=1;rounded=0;endFill=0;" edge="1" parent="1">
          <mxGeometry width="50" height="50" relative="1" as="geometry">
            <mxPoint x="280" y="340" as="sourcePoint" />
            <mxPoint x="280" y="305" as="targetPoint" />
          </mxGeometry>
        </mxCell>
        <mxCell id="ai9MgEBuzhq0wdES0TkW-95" value="" style="group" vertex="1" connectable="0" parent="1">
          <mxGeometry x="242" y="231" width="75.5" height="70" as="geometry" />
        </mxCell>
        <mxCell id="ai9MgEBuzhq0wdES0TkW-93" value="" style="edgeStyle=segmentEdgeStyle;endArrow=classic;html=1;curved=0;rounded=0;endSize=8;startSize=8;" edge="1" parent="ai9MgEBuzhq0wdES0TkW-95">
          <mxGeometry width="50" height="50" relative="1" as="geometry">
            <mxPoint x="38" y="70" as="sourcePoint" />
            <mxPoint x="38" y="40" as="targetPoint" />
            <Array as="points">
              <mxPoint x="38" y="40" />
              <mxPoint x="38" y="40" />
            </Array>
          </mxGeometry>
        </mxCell>
        <mxCell id="ai9MgEBuzhq0wdES0TkW-94" value="Send Values to Serial" style="text;strokeColor=none;fillColor=none;html=1;fontSize=12;fontStyle=1;verticalAlign=middle;align=center;whiteSpace=wrap;" vertex="1" parent="ai9MgEBuzhq0wdES0TkW-95">
          <mxGeometry width="75.5" height="40" as="geometry" />
        </mxCell>
      </root>
    </mxGraphModel>
  </diagram>
</mxfile>
